<mxfile host="65bd71144e">
    <diagram id="FFmpeeD930Ie5xwho43t" name="ページ1">
        <mxGraphModel dx="1187" dy="779" grid="1" gridSize="10" guides="1" tooltips="1" connect="1" arrows="1" fold="1" page="1" pageScale="1" pageWidth="1654" pageHeight="1169" math="0" shadow="0">
            <root>
                <mxCell id="0"/>
                <mxCell id="1" parent="0"/>
                <mxCell id="2" value="ボックスモデル" style="text;html=1;align=center;verticalAlign=middle;resizable=0;points=[];autosize=1;strokeColor=none;fillColor=none;fontSize=25;" vertex="1" parent="1">
                    <mxGeometry x="180" y="90" width="200" height="40" as="geometry"/>
                </mxCell>
                <mxCell id="3" value="" style="swimlane;startSize=0;fontSize=25;dashed=1;" vertex="1" parent="1">
                    <mxGeometry x="160" y="160" width="880" height="320" as="geometry"/>
                </mxCell>
                <mxCell id="4" value="" style="rounded=0;whiteSpace=wrap;html=1;fontSize=25;" vertex="1" parent="3">
                    <mxGeometry x="80" y="80" width="720" height="160" as="geometry"/>
                </mxCell>
                <mxCell id="6" value="margin: 30px" style="text;html=1;align=center;verticalAlign=middle;resizable=0;points=[];autosize=1;strokeColor=none;fillColor=none;fontSize=25;" vertex="1" parent="3">
                    <mxGeometry x="455" y="20" width="170" height="40" as="geometry"/>
                </mxCell>
                <mxCell id="7" value="要素" style="rounded=0;whiteSpace=wrap;html=1;fontSize=25;" vertex="1" parent="3">
                    <mxGeometry x="120" y="110" width="640" height="90" as="geometry"/>
                </mxCell>
                <mxCell id="9" value="padding: 10px" style="text;html=1;align=center;verticalAlign=middle;resizable=0;points=[];autosize=1;strokeColor=none;fillColor=none;fontSize=15;" vertex="1" parent="3">
                    <mxGeometry x="630" y="80" width="120" height="30" as="geometry"/>
                </mxCell>
                <mxCell id="11" value="" style="line;strokeWidth=2;direction=south;html=1;fontSize=15;" vertex="1" parent="3">
                    <mxGeometry x="120" y="250" width="10" height="160" as="geometry"/>
                </mxCell>
                <mxCell id="12" value="" style="line;strokeWidth=2;direction=south;html=1;fontSize=15;" vertex="1" parent="3">
                    <mxGeometry x="750" y="250" width="10" height="160" as="geometry"/>
                </mxCell>
                <mxCell id="21" value="" style="edgeStyle=none;orthogonalLoop=1;jettySize=auto;html=1;endArrow=classic;startArrow=classic;endSize=8;startSize=8;fontSize=15;" edge="1" parent="3">
                    <mxGeometry width="100" relative="1" as="geometry">
                        <mxPoint x="439.5" as="sourcePoint"/>
                        <mxPoint x="439.5" y="80" as="targetPoint"/>
                        <Array as="points"/>
                    </mxGeometry>
                </mxCell>
                <mxCell id="22" value="" style="edgeStyle=none;orthogonalLoop=1;jettySize=auto;html=1;endArrow=classic;startArrow=classic;endSize=8;startSize=8;fontSize=15;" edge="1" parent="3">
                    <mxGeometry width="100" relative="1" as="geometry">
                        <mxPoint x="630" y="80" as="sourcePoint"/>
                        <mxPoint x="630" y="110" as="targetPoint"/>
                        <Array as="points"/>
                    </mxGeometry>
                </mxCell>
                <mxCell id="14" value="width: 300px" style="text;html=1;align=center;verticalAlign=middle;resizable=0;points=[];autosize=1;strokeColor=none;fillColor=none;fontSize=15;" vertex="1" parent="1">
                    <mxGeometry x="510" y="555" width="110" height="30" as="geometry"/>
                </mxCell>
                <mxCell id="15" value="" style="line;strokeWidth=2;direction=south;html=1;fontSize=15;" vertex="1" parent="1">
                    <mxGeometry x="160" y="480" width="10" height="160" as="geometry"/>
                </mxCell>
                <mxCell id="16" value="" style="line;strokeWidth=2;direction=south;html=1;fontSize=15;" vertex="1" parent="1">
                    <mxGeometry x="1030" y="480" width="10" height="160" as="geometry"/>
                </mxCell>
                <mxCell id="18" value="ボックスの大きさ＝380px" style="text;html=1;align=center;verticalAlign=middle;resizable=0;points=[];autosize=1;strokeColor=none;fillColor=none;fontSize=15;" vertex="1" parent="1">
                    <mxGeometry x="460" y="660" width="200" height="30" as="geometry"/>
                </mxCell>
                <mxCell id="19" value="" style="edgeStyle=none;orthogonalLoop=1;jettySize=auto;html=1;endArrow=classic;startArrow=classic;endSize=8;startSize=8;fontSize=15;" edge="1" parent="1">
                    <mxGeometry width="100" relative="1" as="geometry">
                        <mxPoint x="180" y="640" as="sourcePoint"/>
                        <mxPoint x="1020" y="640" as="targetPoint"/>
                        <Array as="points"/>
                    </mxGeometry>
                </mxCell>
                <mxCell id="20" value="" style="edgeStyle=none;orthogonalLoop=1;jettySize=auto;html=1;endArrow=classic;startArrow=classic;endSize=8;startSize=8;fontSize=15;" edge="1" parent="1">
                    <mxGeometry width="100" relative="1" as="geometry">
                        <mxPoint x="300" y="540" as="sourcePoint"/>
                        <mxPoint x="900" y="540" as="targetPoint"/>
                        <Array as="points"/>
                    </mxGeometry>
                </mxCell>
            </root>
        </mxGraphModel>
    </diagram>
</mxfile>